<svg width="70" height="69" viewBox="0 0 70 69" fill="none" xmlns="http://www.w3.org/2000/svg">
<path fill-rule="evenodd" clip-rule="evenodd" d="M35.5778 19.0602C44.2094 19.0668 51.2007 26.0674 51.194 34.6967C51.1873 43.3261 44.185 50.3155 35.5533 50.3089C26.9216 50.3022 19.9303 43.3017 19.937 34.6723C19.9437 26.0429 26.9461 19.0535 35.5778 19.0602Z" fill="#F9C900"/>
<path fill-rule="evenodd" clip-rule="evenodd" d="M31.8508 55.5248C31.8508 55.7117 31.8264 55.9031 31.7752 56.0922L29.1821 65.7385C28.8683 66.9067 27.6663 67.601 26.4978 67.2873C25.3292 66.9735 24.6348 65.7719 24.9508 64.6014L27.5439 54.9551C27.8577 53.7869 29.0597 53.0948 30.2282 53.4086C31.2076 53.6712 31.8508 54.5568 31.8508 55.5248Z" fill="#F9C900"/>
<path fill-rule="evenodd" clip-rule="evenodd" d="M20.9945 51.5643C20.9945 52.154 20.7564 52.7437 20.289 53.1754L12.9416 59.9423C12.0513 60.7634 10.6646 60.7055 9.84548 59.8154C9.02416 58.9276 9.07981 57.5413 9.97013 56.7201L17.3175 49.951C18.2078 49.1322 19.5945 49.19 20.4136 50.0779C20.8031 50.5007 20.9945 51.0325 20.9945 51.5643Z" fill="#F9C900"/>
<path fill-rule="evenodd" clip-rule="evenodd" d="M15.0562 40.9285C15.0562 41.9031 14.3996 42.791 13.4136 43.0469L3.74025 45.5458C2.56725 45.8484 1.37199 45.1452 1.06928 43.9726C0.76657 42.8021 1.46993 41.6071 2.64293 41.3045L12.3163 38.8034C13.4871 38.5007 14.6823 39.2061 14.985 40.3766C15.034 40.5613 15.0562 40.746 15.0562 40.9285Z" fill="#F9C900"/>
<path fill-rule="evenodd" clip-rule="evenodd" d="M15.364 28.656C15.364 28.8362 15.3417 29.0187 15.295 29.2011C14.9923 30.3738 13.797 31.0792 12.6262 30.7766L2.95067 28.2866C1.77767 27.9862 1.07209 26.7912 1.3748 25.6208C1.67528 24.4481 2.87054 23.7427 4.04354 24.0453L13.7191 26.5353C14.7074 26.789 15.364 27.6791 15.364 28.656Z" fill="#F9C900"/>
<path fill-rule="evenodd" clip-rule="evenodd" d="M20.9401 17.9892C20.9401 18.5366 20.7353 19.0862 20.3236 19.5112C19.4822 20.379 18.0933 20.4035 17.2252 19.5602L10.047 12.613C9.17895 11.7719 9.15447 10.3834 9.99805 9.51554C10.8394 8.64548 12.2261 8.62323 13.0964 9.46436L20.2724 16.4137C20.7175 16.8432 20.9401 17.4151 20.9401 17.9892Z" fill="#F9C900"/>
<path fill-rule="evenodd" clip-rule="evenodd" d="M31.12 11.8985C31.12 12.8776 30.4567 13.7699 29.464 14.0191C28.291 14.3151 27.1002 13.603 26.8042 12.4303L24.3624 2.74398C24.0664 1.56907 24.7787 0.380804 25.9517 0.0848505C27.1247 -0.211103 28.3155 0.500966 28.6115 1.67365L31.0532 11.36C31.0977 11.5403 31.12 11.7205 31.12 11.8985Z" fill="#F9C900"/>
<path fill-rule="evenodd" clip-rule="evenodd" d="M45.7891 2.92624C45.7891 3.11093 45.7646 3.29785 45.7157 3.48254L43.176 13.1444C42.8689 14.3127 41.6714 15.0136 40.5006 14.7043C39.3298 14.3972 38.6309 13.1978 38.9381 12.0296L41.4777 2.36993C41.7849 1.19947 42.9846 0.500751 44.1554 0.80783C45.1392 1.06596 45.7891 1.95382 45.7891 2.92624Z" fill="#F9C900"/>
<path fill-rule="evenodd" clip-rule="evenodd" d="M61.678 11.267C61.678 11.8789 61.422 12.4864 60.9257 12.9181L53.3869 19.4758C52.4743 20.268 51.0898 20.1723 50.2952 19.26C49.5006 18.3476 49.5963 16.9636 50.5111 16.1692L58.0477 9.61368C58.9625 8.81927 60.3448 8.91496 61.1394 9.8273C61.5022 10.2434 61.678 10.7574 61.678 11.267Z" fill="#F9C900"/>
<path fill-rule="evenodd" clip-rule="evenodd" d="M69.4471 25.8864C69.4471 26.8477 68.8083 27.7289 67.8357 27.9959L58.2001 30.6395C57.0338 30.9599 55.8274 30.2723 55.5069 29.1063C55.1864 27.9381 55.8742 26.7343 57.0405 26.4138L66.676 23.7703C67.8423 23.4521 69.0487 24.1374 69.3692 25.3034C69.4227 25.4993 69.4471 25.6951 69.4471 25.8864Z" fill="#F9C900"/>
<path fill-rule="evenodd" clip-rule="evenodd" d="M69.2815 42.9652C69.2815 43.1454 69.2592 43.3279 69.2125 43.5104C68.9098 44.6831 67.7145 45.3885 66.5437 45.0858L56.8681 42.5958C55.6951 42.2954 54.9896 41.1005 55.2923 39.93C55.5928 38.7573 56.788 38.0519 57.961 38.3545L67.6366 40.8446C68.6249 41.0982 69.2815 41.9883 69.2815 42.9652Z" fill="#F9C900"/>
<path fill-rule="evenodd" clip-rule="evenodd" d="M61.099 58.0063C61.099 58.5737 60.8786 59.1434 60.4401 59.5706C59.5743 60.4162 58.1876 60.4006 57.3418 59.535L50.3572 52.3943C49.5114 51.5287 49.5248 50.1424 50.3906 49.2968C51.2565 48.4512 52.6431 48.4668 53.4889 49.3302L60.4735 56.4731C60.892 56.9004 61.099 57.4522 61.099 58.0063Z" fill="#F9C900"/>
<path fill-rule="evenodd" clip-rule="evenodd" d="M46.0139 66.0848C46.0139 67.0505 45.3684 67.9339 44.3913 68.1965C43.2228 68.5125 42.0208 67.8204 41.707 66.6522L39.1073 57.0081C38.7912 55.8399 39.4834 54.636 40.652 54.3223C41.8205 54.0063 43.0224 54.6983 43.3385 55.8666L45.9383 65.5129C45.9894 65.7042 46.0139 65.8956 46.0139 66.0848Z" fill="#F9C900"/>
</svg>
