<svg width="100" height="66" viewBox="0 0 100 66" fill="none" xmlns="http://www.w3.org/2000/svg">
<g clip-path="url(#clip0_225_627)">
<path fill-rule="evenodd" clip-rule="evenodd" d="M30.2733 16.5171C37.831 16.5229 43.9522 22.5952 43.9464 30.0809C43.9406 37.5667 37.8099 43.6295 30.2522 43.6238C22.6945 43.6181 16.5733 37.5457 16.5791 30.06C16.5849 22.5743 22.7156 16.5114 30.2733 16.5171Z" fill="#F9C900"/>
<path fill-rule="evenodd" clip-rule="evenodd" d="M27.0109 48.1471C27.0109 48.3109 26.9898 48.4747 26.9455 48.6404L24.6744 57.008C24.3994 58.0213 23.3475 58.6213 22.3244 58.349C21.2994 58.0766 20.6936 57.0347 20.9686 56.0213L23.2398 47.6537C23.5148 46.6404 24.5667 46.0404 25.5898 46.3109C26.4475 46.5394 27.0109 47.309 27.0109 48.1471Z" fill="#F9C900"/>
<path fill-rule="evenodd" clip-rule="evenodd" d="M17.5055 44.7118C17.5055 45.2242 17.2978 45.7347 16.8862 46.108L10.4535 51.9804C9.67469 52.6909 8.46122 52.6413 7.74392 51.8699C7.02469 51.0985 7.07469 49.8966 7.85353 49.1842L14.2862 43.3137C15.067 42.6032 16.2805 42.6509 16.9978 43.4242C17.3381 43.788 17.5055 44.2509 17.5055 44.7118Z" fill="#F9C900"/>
<mask id="mask0_225_627" style="mask-type:luminance" maskUnits="userSpaceOnUse" x="0" y="33" width="13" height="7">
<path fill-rule="evenodd" clip-rule="evenodd" d="M0 33.5831V39.5528H12.3067V33.5831L0 33.5831L0 33.5831Z" fill="white"/>
</mask>
<g mask="url(#mask0_225_627)">
<path fill-rule="evenodd" clip-rule="evenodd" d="M12.3066 35.4861C12.3066 36.3318 11.7316 37.1013 10.8681 37.3223L2.39889 39.4918C1.37389 39.7547 0.325808 39.1432 0.0604234 38.128C-0.203038 37.1128 0.412346 36.0747 1.43927 35.8118L9.9085 33.6442C10.9335 33.3813 11.9797 33.9908 12.245 35.008C12.2873 35.168 12.3066 35.328 12.3066 35.4861Z" fill="#F9C900"/>
</g>
<path fill-rule="evenodd" clip-rule="evenodd" d="M12.576 24.8408C12.576 24.997 12.5567 25.155 12.5144 25.315C12.251 26.3303 11.2048 26.9417 10.1798 26.6808L1.70673 24.5208C0.681729 24.2598 0.0644211 23.2217 0.327883 22.2065C0.591344 21.1912 1.6375 20.5798 2.66442 20.8408L11.1356 23.0008C12.001 23.2217 12.576 23.9931 12.576 24.8408Z" fill="#F9C900"/>
<path fill-rule="evenodd" clip-rule="evenodd" d="M17.4581 15.5882C17.4581 16.0644 17.2792 16.5406 16.9177 16.9082C16.1812 17.6625 14.9658 17.6815 14.2042 16.952L7.92155 10.9234C7.16001 10.1939 7.14078 8.992 7.87732 8.23772C8.61386 7.48343 9.82924 7.46438 10.5908 8.19391L16.8735 14.2206C17.2639 14.5939 17.4581 15.0911 17.4581 15.5882Z" fill="#F9C900"/>
<path fill-rule="evenodd" clip-rule="evenodd" d="M26.3705 10.3051C26.3705 11.1547 25.7897 11.928 24.9205 12.1451C23.8935 12.4023 22.8493 11.7851 22.5916 10.7661L20.4532 2.36419C20.1955 1.34514 20.8185 0.314664 21.8455 0.0575208C22.8724 -0.197717 23.9166 0.419426 24.1743 1.43657L26.3128 9.83847C26.3512 9.99466 26.3705 10.1509 26.3705 10.3051Z" fill="#F9C900"/>
<path fill-rule="evenodd" clip-rule="evenodd" d="M39.2138 2.52228C39.2138 2.68228 39.1926 2.84419 39.1503 3.00609L36.9273 11.3851C36.658 12.4004 35.608 13.0061 34.583 12.7394C33.56 12.4728 32.9465 11.4328 33.2157 10.4194L35.4388 2.03848C35.708 1.02514 36.758 0.417523 37.783 0.684189C38.6446 0.908951 39.2138 1.67848 39.2138 2.52228Z" fill="#F9C900"/>
<path fill-rule="evenodd" clip-rule="evenodd" d="M53.1249 9.75734C53.1249 10.2869 52.9018 10.8145 52.4653 11.1897L45.8653 16.8773C45.0672 17.565 43.8537 17.4811 43.1595 16.6907C42.4633 15.8983 42.5479 14.6983 43.3479 14.0088L49.9479 8.32305C50.746 7.63353 51.9576 7.71734 52.6537 8.50972C52.971 8.86972 53.1249 9.31543 53.1249 9.75734Z" fill="#F9C900"/>
<path fill-rule="evenodd" clip-rule="evenodd" d="M59.9268 22.4385C59.9268 23.2728 59.3671 24.0366 58.5152 24.2689L50.0806 26.5604C49.0575 26.8385 48.0018 26.2442 47.7229 25.2309C47.4421 24.2175 48.0421 23.1737 49.0652 22.8956L57.4998 20.6042C58.5229 20.3261 59.5768 20.9204 59.8575 21.9337C59.9037 22.1013 59.9268 22.2709 59.9268 22.4385Z" fill="#F9C900"/>
<path fill-rule="evenodd" clip-rule="evenodd" d="M59.7817 37.2526C59.7817 37.4088 59.7624 37.5669 59.7201 37.7269C59.4567 38.7421 58.4105 39.3535 57.3855 39.0926L48.9124 36.9326C47.8874 36.6716 47.2682 35.6354 47.5336 34.6183C47.7971 33.603 48.8432 32.9916 49.8701 33.2526L58.3413 35.4126C59.2067 35.6335 59.7817 36.4049 59.7817 37.2526Z" fill="#F9C900"/>
<path fill-rule="evenodd" clip-rule="evenodd" d="M52.6178 50.2996C52.6178 50.7929 52.4255 51.2844 52.0409 51.6558C51.2832 52.391 50.0678 52.3777 49.3274 51.6272L43.212 45.431C42.4717 44.6806 42.4851 43.4787 43.2428 42.7453C44.0005 42.0101 45.2159 42.0234 45.9563 42.7739L52.0717 48.9701C52.437 49.3396 52.6178 49.8196 52.6178 50.2996Z" fill="#F9C900"/>
<path fill-rule="evenodd" clip-rule="evenodd" d="M39.4107 57.3069C39.4107 58.145 38.8473 58.9107 37.9915 59.1392C36.9684 59.4116 35.9146 58.8116 35.6396 57.7983L33.3627 49.4326C33.0877 48.4192 33.6934 47.3773 34.7165 47.103C35.7396 46.8307 36.7934 47.4307 37.0684 48.444L39.3434 56.8097C39.3896 56.9754 39.4107 57.143 39.4107 57.3069Z" fill="#F9C900"/>
<mask id="mask1_225_627" style="mask-type:luminance" maskUnits="userSpaceOnUse" x="33" y="14" width="67" height="39">
<path fill-rule="evenodd" clip-rule="evenodd" d="M99.3441 52.7371V14.8781H33.0239V52.7371H99.3441Z" fill="white"/>
</mask>
<g mask="url(#mask1_225_627)">
<path fill-rule="evenodd" clip-rule="evenodd" d="M89.3008 32.5733C94.8393 32.5733 99.3451 37.0952 99.3451 42.6571C99.3451 48.2152 94.8393 52.7371 89.3008 52.7371H45.6297C38.6797 52.7371 33.0239 47.0591 33.0239 40.08C33.0239 33.101 38.6797 27.4229 45.6297 27.4229C46.9239 27.4229 48.2105 27.6229 49.4489 28.0171L50.2585 28.2743L50.5432 27.4724C53.2124 19.9391 60.3451 14.8781 68.2912 14.8781C78.0066 14.8781 86.0701 22.1848 87.0489 31.8762L87.1393 32.7733L88.0316 32.6629C88.5239 32.6019 88.9278 32.5733 89.3008 32.5733Z" fill="#BAC6D1"/>
</g>
<mask id="mask2_225_627" style="mask-type:luminance" maskUnits="userSpaceOnUse" x="6" y="23" width="74" height="43">
<path fill-rule="evenodd" clip-rule="evenodd" d="M6.62842 65.2621H79.8957V23.5809H6.62842V65.2621Z" fill="white"/>
</mask>
<g mask="url(#mask2_225_627)">
<path fill-rule="evenodd" clip-rule="evenodd" d="M17.7246 43.0629C11.6073 43.0629 6.62842 48.0419 6.62842 54.1638C6.62842 60.2819 11.6073 65.2629 17.7246 65.2629H65.9688C73.6496 65.2629 79.8957 59.0114 79.8957 51.3276C79.8957 43.6438 73.6496 37.3924 65.9688 37.3924C64.54 37.3924 63.1188 37.6133 61.7496 38.0457L60.8573 38.3295L60.5419 37.4457C57.5938 29.1524 49.713 23.5809 40.9342 23.5809C30.2015 23.5809 21.2938 31.6267 20.213 42.2952L20.113 43.2838L19.1284 43.1619C18.5823 43.0933 18.1361 43.0629 17.7246 43.0629Z" fill="#D6E3F2"/>
</g>
</g>
<defs>
<clipPath id="clip0_225_627">
<rect width="100" height="66" fill="white"/>
</clipPath>
</defs>
</svg>
