<svg width="84" height="69" viewBox="0 0 84 69" fill="none" xmlns="http://www.w3.org/2000/svg">
<g clip-path="url(#clip0_225_620)">
<path fill-rule="evenodd" clip-rule="evenodd" d="M23.1532 54.1921C23.1532 54.1921 20.365 62.007 21.0971 65.0042C21.7021 67.4841 24.1812 69.0187 26.6275 68.4271C29.0825 67.8333 30.5708 65.336 29.9658 62.8584C29.2337 59.859 23.1532 54.1921 23.1532 54.1921Z" fill="#38A1E8"/>
<path fill-rule="evenodd" clip-rule="evenodd" d="M40.744 53.9581C40.744 53.9581 37.9558 61.773 38.6879 64.7724C39.2929 67.25 41.772 68.7846 44.2183 68.1931C46.6733 67.5993 48.1616 65.102 47.5566 62.6244C46.8245 59.625 40.744 53.9581 40.744 53.9581Z" fill="#38A1E8"/>
<path fill-rule="evenodd" clip-rule="evenodd" d="M59.0228 53.7151C59.0228 53.7151 56.2346 61.5301 56.9668 64.5273C57.5717 67.0071 60.0509 68.5417 62.4971 67.9501C64.9521 67.3564 66.4404 64.8591 65.8333 62.3814C65.1011 59.3821 59.0228 53.7151 59.0228 53.7151Z" fill="#38A1E8"/>
<path fill-rule="evenodd" clip-rule="evenodd" d="M12.6477 23.0253C5.675 23.0253 0 28.7315 0 35.7475C0 42.7591 5.675 48.4675 12.6477 48.4675H67.6375C76.3923 48.4675 83.5118 41.3031 83.5118 32.4971C83.5118 23.6911 76.3923 16.5266 67.6375 16.5266C66.0089 16.5266 64.389 16.7799 62.8284 17.2754L61.8113 17.6006L61.4518 16.5878C58.0915 7.0832 49.1088 0.698074 39.1025 0.698074C26.8691 0.698074 16.7159 9.91885 15.4841 22.1455L15.3701 23.2785L14.2478 23.1388C13.6253 23.0602 13.1167 23.0253 12.6477 23.0253Z" fill="#D6E3F2"/>
</g>
<defs>
<clipPath id="clip0_225_620">
<rect width="84" height="69" fill="white"/>
</clipPath>
</defs>
</svg>
